{
  "source": "C:\\Users\\Peter\\Desktop\\stuff\\MIUN\\quantitative_research\\video_compression\\videos\\BVI-HD\\BVI-HD_CDVL_videos\\ORIG\\Hamster_1920x1080_60fps.mp4",
  "output": "C:\\Users\\Peter\\Desktop\\stuff\\MIUN\\quantitative_research\\video_compression\\compressed_videos\\BVI-HD\\h264\\4\\Hamster_1920x1080_60fps_h264.mp4",
  "codec": "h264",
  "ok": "Input #0, mov,mp4,m4a,3gp,3g2,mj2, from 'C:\\Users\\Peter\\Desktop\\stuff\\MIUN\\quantitative_research\\video_compression\\videos\\BVI-HD\\BVI-HD_CDVL_videos\\ORIG\\Hamster_1920x1080_60fps.mp4':\n  Metadata:\n    major_brand     : isom\n    minor_version   : 512\n    compatible_brands: isomiso2avc1mp41\n    encoder         : Lavf54.28.101\n  Duration: 00:00:05.00, start: 0.000000, bitrate: 208485 kb/s\n  Stream #0:0[0x1](und): Video: h264 (High 4:4:4 Predictive) (avc1 / 0x31637661), yuv420p(progressive), 1920x1080, 208481 kb/s, 60 fps, 60 tbr, 60 tbn (default)\n    Metadata:\n      handler_name    : VideoHandler\n      vendor_id       : [0][0][0][0]\n[out#0/mp4 @ 00000279bc6fee80] Codec AVOption b:a (set bitrate (in bits/s)) has not been used for any stream. The most likely reason is either wrong type (e.g. a video option with no video streams) or that it is a private option of some decoder which was not actually used for any stream.\nStream mapping:\n  Stream #0:0 -> #0:0 (h264 (native) -> h264 (libx264))\nPress [q] to stop, [?] for help\n[libx264 @ 00000279bcdeac00] using cpu capabilities: MMX2 SSE2Fast SSSE3 SSE4.2 AVX FMA3 BMI2 AVX2\n[libx264 @ 00000279bcdeac00] profile High, level 5.0, 4:2:0, 8-bit\n[libx264 @ 00000279bcdeac00] 264 - core 165 r3222 b35605a - H.264/MPEG-4 AVC codec - Copyleft 2003-2025 - http://www.videolan.org/x264.html - options: cabac=1 ref=5 deblock=1:0:0 analyse=0x3:0x113 me=hex subme=8 psy=1 psy_rd=1.00:0.00 mixed_ref=1 me_range=16 chroma_me=1 trellis=2 8x8dct=1 cqm=0 deadzone=21,11 fast_pskip=1 chroma_qp_offset=-2 threads=18 lookahead_threads=3 sliced_threads=0 nr=0 decimate=1 interlaced=0 bluray_compat=0 constrained_intra=0 bframes=3 b_pyramid=2 b_adapt=1 b_bias=0 direct=3 weightb=1 open_gop=0 weightp=2 keyint=250 keyint_min=25 scenecut=40 intra_refresh=0 rc_lookahead=50 rc=cbr mbtree=1 bitrate=4000 ratetol=1.0 qcomp=0.60 qpmin=0 qpmax=69 qpstep=4 vbv_maxrate=4000 vbv_bufsize=4000 nal_hrd=none filler=0 ip_ratio=1.40 aq=1:1.00\nOutput #0, mp4, to 'C:\\Users\\Peter\\Desktop\\stuff\\MIUN\\quantitative_research\\video_compression\\compressed_videos\\BVI-HD\\h264\\4\\Hamster_1920x1080_60fps_h264.mp4':\n  Metadata:\n    major_brand     : isom\n    minor_version   : 512\n    compatible_brands: isomiso2avc1mp41\n    encoder         : Lavf62.3.100\n  Stream #0:0(und): Video: h264 (avc1 / 0x31637661), yuv420p(tv, progressive), 1920x1080, q=2-31, 4000 kb/s, 60 fps, 15360 tbn (default)\n    Metadata:\n      encoder         : Lavc62.11.100 libx264\n      handler_name    : VideoHandler\n      vendor_id       : [0][0][0][0]\n    Side data:\n      cpb: bitrate max/min/avg: 4000000/0/4000000 buffer size: 4000000 vbv_delay: N/A\nframe=    0 fps=0.0 q=0.0 size=       0KiB time=N/A bitrate=N/A speed=N/A elapsed=0:00:00.51    \nframe=    0 fps=0.0 q=0.0 size=       0KiB time=N/A bitrate=N/A speed=N/A elapsed=0:00:01.24    \nframe=    9 fps=4.8 q=32.0 size=       0KiB time=00:00:00.03 bitrate=  11.5kbits/s speed=0.0178x elapsed=0:00:01.87    \nframe=   36 fps= 14 q=33.0 size=       0KiB time=00:00:00.50 bitrate=   0.8kbits/s speed=0.198x elapsed=0:00:02.51    \nframe=   60 fps= 19 q=33.0 size=     256KiB time=00:00:00.90 bitrate=2330.6kbits/s speed=0.288x elapsed=0:00:03.12    \nframe=   87 fps= 23 q=33.0 size=     512KiB time=00:00:01.31 bitrate=3185.8kbits/s speed=0.355x elapsed=0:00:03.71    \nframe=  108 fps= 25 q=34.0 size=     768KiB time=00:00:01.65 bitrate=3813.2kbits/s speed=0.383x elapsed=0:00:04.31    \nframe=  129 fps= 26 q=35.0 size=    1024KiB time=00:00:02.11 bitrate=3963.3kbits/s speed=0.425x elapsed=0:00:04.97    \nframe=  149 fps= 27 q=35.0 size=    1024KiB time=00:00:02.45 bitrate=3424.1kbits/s speed=0.442x elapsed=0:00:05.54    \nframe=  176 fps= 28 q=35.0 size=    1280KiB time=00:00:02.85 bitrate=3679.3kbits/s speed=0.461x elapsed=0:00:06.18    \nframe=  195 fps= 29 q=35.0 size=    1536KiB time=00:00:03.18 bitrate=3952.9kbits/s speed=0.467x elapsed=0:00:06.81    \nframe=  221 fps= 30 q=37.0 size=    1792KiB time=00:00:03.51 bitrate=4174.5kbits/s speed=0.474x elapsed=0:00:07.42    \nframe=  247 fps= 30 q=36.0 size=    2048KiB time=00:00:03.86 bitrate=4339.0kbits/s speed=0.477x elapsed=0:00:08.11    \nframe=  276 fps= 32 q=36.0 size=    2304KiB time=00:00:04.51 bitrate=4178.9kbits/s speed=0.516x elapsed=0:00:08.74    \n[mp4 @ 00000279bc669a80] Starting second pass: moving the moov atom to the beginning of the file\n[out#0/mp4 @ 00000279bc6fee80] video:2472KiB audio:0KiB subtitle:0KiB other streams:0KiB global headers:0KiB muxing overhead: 0.176598%\nframe=  300 fps= 33 q=-1.0 Lsize=    2477KiB time=00:00:04.96 bitrate=4085.2kbits/s speed=0.547x elapsed=0:00:09.08    \n[libx264 @ 00000279bcdeac00] frame I:2     Avg QP:29.76  size: 35980\n[libx264 @ 00000279bcdeac00] frame P:76    Avg QP:32.07  size: 14074\n[libx264 @ 00000279bcdeac00] frame B:222   Avg QP:34.72  size:  6258\n[libx264 @ 00000279bcdeac00] consecutive B-frames:  1.0%  0.0%  3.0% 96.0%\n[libx264 @ 00000279bcdeac00] mb I  I16..4: 10.2% 85.2%  4.6%\n[libx264 @ 00000279bcdeac00] mb P  I16..4:  2.5% 13.6%  0.4%  P16..4: 21.7%  2.8%  1.3%  0.0%  0.0%    skip:57.6%\n[libx264 @ 00000279bcdeac00] mb B  I16..4:  0.4%  1.8%  0.1%  B16..8: 22.7%  2.4%  0.2%  direct: 0.8%  skip:71.7%  L0:52.1% L1:45.3% BI: 2.6%\n[libx264 @ 00000279bcdeac00] 8x8 transform intra:81.9% inter:92.7%\n[libx264 @ 00000279bcdeac00] direct mvs  spatial:95.5% temporal:4.5%\n[libx264 @ 00000279bcdeac00] coded y,uvDC,uvAC intra: 32.6% 52.5% 18.0% inter: 3.4% 6.5% 0.2%\n[libx264 @ 00000279bcdeac00] i16 v,h,dc,p: 29% 31%  6% 34%\n[libx264 @ 00000279bcdeac00] i8 v,h,dc,ddl,ddr,vr,hd,vl,hu: 17% 13% 31%  4%  7%  7%  9%  5%  7%\n[libx264 @ 00000279bcdeac00] i4 v,h,dc,ddl,ddr,vr,hd,vl,hu: 13% 15% 19%  7% 13%  9% 13%  5%  6%\n[libx264 @ 00000279bcdeac00] i8c dc,h,v,p: 63% 16% 13%  8%\n[libx264 @ 00000279bcdeac00] Weighted P-Frames: Y:0.0% UV:0.0%\n[libx264 @ 00000279bcdeac00] ref P L0: 44.6% 12.0% 21.2%  9.8% 12.4%\n[libx264 @ 00000279bcdeac00] ref B L0: 70.3% 19.5%  7.9%  2.3%\n[libx264 @ 00000279bcdeac00] ref B L1: 92.1%  7.9%\n[libx264 @ 00000279bcdeac00] kb/s:4049.57\n",
  "seconds": 9.523387432098389,
  "probe_out": {}
}